<?xml version="1.0" encoding="UTF-8" standalone="no"?>
<!-- Created with Inkscape (http://www.inkscape.org/) -->

<svg
   xmlns:dc="http://purl.org/dc/elements/1.1/"
   xmlns:cc="http://creativecommons.org/ns#"
   xmlns:rdf="http://www.w3.org/1999/02/22-rdf-syntax-ns#"
   xmlns:svg="http://www.w3.org/2000/svg"
   xmlns="http://www.w3.org/2000/svg"
   xmlns:sodipodi="http://sodipodi.sourceforge.net/DTD/sodipodi-0.dtd"
   xmlns:inkscape="http://www.inkscape.org/namespaces/inkscape"
   width="1024"
   height="768"
   viewBox="0 0 1024 768"
   version="1.1"
   id="svg8"
   inkscape:version="0.92.2 (5c3e80d, 2017-08-06)"
   sodipodi:docname="upstairs.svg">
  <defs
     id="defs2">
    <inkscape:path-effect
       effect="bspline"
       id="path-effect173"
       is_visible="true"
       weight="33.333333"
       steps="2"
       helper_size="0"
       apply_no_weight="true"
       apply_with_weight="true"
       only_selected="false" />
    <inkscape:path-effect
       effect="bspline"
       id="path-effect169"
       is_visible="true"
       weight="33.333333"
       steps="2"
       helper_size="0"
       apply_no_weight="true"
       apply_with_weight="true"
       only_selected="false" />
  </defs>
  <sodipodi:namedview
     id="base"
     pagecolor="#ffffff"
     bordercolor="#666666"
     borderopacity="1.0"
     inkscape:pageopacity="0.0"
     inkscape:pageshadow="2"
     inkscape:zoom="1.4142136"
     inkscape:cx="627.27092"
     inkscape:cy="379.12475"
     inkscape:document-units="px"
     inkscape:current-layer="layer1"
     showgrid="false"
     units="px"
     scale-x="1"
     inkscape:window-width="1258"
     inkscape:window-height="1196"
     inkscape:window-x="1121"
     inkscape:window-y="11"
     inkscape:window-maximized="0"
     inkscape:lockguides="true"
     inkscape:snap-global="false" />
  <metadata
     id="metadata5">
    <rdf:RDF>
      <cc:Work
         rdf:about="">
        <dc:format>image/svg+xml</dc:format>
        <dc:type
           rdf:resource="http://purl.org/dc/dcmitype/StillImage" />
        <dc:title />
      </cc:Work>
    </rdf:RDF>
  </metadata>
  <g
     inkscape:label="Layer 1"
     inkscape:groupmode="layer"
     id="layer1"
     transform="translate(0,-93.799984)">
    <path
       style="opacity:0.2;stroke:#000000;stroke-opacity:1"
       d="m 378.84375,176.841 v 223.82812 h 133.03906 v -20.15039 h 33.50391 V 176.841 Z m 166.54297,203.67773 v 20.15039 h -33.50391 v 0.19141 h 33.54688 v -20.3418 z"
       id="binary_sensor.office_occupancy"
       inkscape:connector-curvature="0"
       inkscape:label="#rect1328">
      <title
         id="title4190">Office Occupancy Sensor</title>
    </path>
    <path
       style="opacity:0.2;stroke:#000000;stroke-opacity:1"
       d="M 545.38672 83.078125 L 545.38672 307.00391 L 756.30078 307.00391 L 756.30078 306.86914 L 725.58203 306.86914 L 725.58203 286.78906 L 756.30078 286.78906 L 756.30078 83.078125 L 545.38672 83.078125 z M 545.41797 286.55859 L 583.49805 286.55859 L 583.49805 306.83789 L 545.41797 306.83789 L 545.41797 286.55859 z "
       id="rect1330"
       transform="translate(0,93.799984)" />
    <rect
       style="opacity:0.2;stroke:#000000;stroke-opacity:1"
       id="rect1332"
       width="153.98795"
       height="153.17682"
       x="756.60425"
       y="176.87886" />
    <rect
       style="opacity:0.2;stroke:#000000;stroke-width:0.89383334;stroke-opacity:1"
       id="rect1334"
       width="154.42708"
       height="145.35028"
       x="756.25287"
       y="503.80859" />
    <rect
       style="opacity:0.21;stroke:#000000;stroke-width:0.74060029;stroke-opacity:1"
       id="rect1338"
       width="43.203003"
       height="55.077854"
       x="798.87659"
       y="-385.0993"
       transform="scale(1,-1)" />
    <rect
       style="opacity:0.2;stroke:#000000;stroke-width:0.96166801;stroke-opacity:1"
       id="rect1340"
       width="68.638985"
       height="54.877449"
       x="841.99927"
       y="-384.88702"
       transform="scale(1,-1)" />
    <path
       style="opacity:0.2;stroke:#000000;stroke-width:1.02933693;stroke-opacity:1"
       d="M 798.91992 291.44922 L 798.91992 352.21289 L 910.5918 352.21289 L 910.5918 291.44922 L 798.91992 291.44922 z M 798.92969 291.45898 L 821.74805 291.45898 L 821.74805 316.82422 L 798.92969 316.82422 L 798.92969 291.45898 z "
       transform="translate(0,93.799984)"
       id="rect1342" />
    <rect
       transform="scale(1,-1)"
       y="-504.11133"
       x="798.90167"
       height="58.099239"
       width="43.152828"
       id="rect1344"
       style="opacity:0.2;stroke:#000000;stroke-width:0.76020068;stroke-opacity:1" />
    <rect
       transform="scale(1,-1)"
       y="-504.11133"
       x="842.0545"
       height="58.099243"
       width="68.546814"
       id="rect1346"
       style="opacity:0.2;stroke:#000000;stroke-width:0.98883003;stroke-opacity:1" />
    <rect
       style="opacity:0.2;stroke:#000000;stroke-width:0.94320136;stroke-opacity:1"
       id="rect1352"
       width="133.24892"
       height="152.10095"
       x="378.81461"
       y="522.3407" />
    <rect
       style="opacity:0.2;stroke:#000000;stroke-opacity:1"
       id="rect1354"
       width="42.297424"
       height="174.05566"
       x="756.60425"
       y="330.05566" />
    <rect
       style="opacity:0.2;stroke:#000000;stroke-width:1.33180141;stroke-opacity:1"
       id="rect1356"
       width="244.17105"
       height="48.322216"
       x="512.08319"
       y="400.74509" />
    <rect
       style="opacity:0.2;stroke:#000000;stroke-opacity:1"
       id="rect1362"
       width="31.14319"
       height="121.59804"
       x="480.73987"
       y="400.86008" />
    <path
       id="rect1366"
       style="opacity:0.2;stroke:#000000;stroke-opacity:1"
       d="m 511.70624,449.28229 h 34.58949 v 17.51686 h -34.58949 z m 0,17.51684 H 712.32265 V 522.3729 H 511.70624 Z" />
    <rect
       style="opacity:1;stroke:#000000;stroke-opacity:1"
       id="rect1368"
       width="25.400118"
       height="17.595987"
       x="546.29572"
       y="449.20319" />
    <rect
       style="opacity:0.2;stroke:#000000;stroke-width:1.04988337;stroke-opacity:1"
       id="rect1370"
       width="102.03424"
       height="67.738655"
       x="378.6806"
       y="400.88501" />
    <rect
       style="opacity:0.2;stroke:#000000;stroke-opacity:1"
       id="rect1372"
       width="19.706186"
       height="32.880451"
       x="461.06039"
       y="468.62183" />
    <rect
       style="opacity:1;stroke:#000000;stroke-width:0.88082814;stroke-opacity:1"
       id="rect1374"
       width="19.825409"
       height="21.04821"
       x="460.97403"
       y="501.46951" />
    <rect
       style="opacity:0.2;stroke:#000000;stroke-width:0.94642144;stroke-opacity:1"
       id="rect1376"
       width="82.244179"
       height="53.863049"
       x="378.81622"
       y="468.62183" />
    <rect
       style="opacity:1;stroke:#000000;stroke-width:1.1913836;stroke-opacity:1"
       id="rect1384"
       width="38.067875"
       height="29.099724"
       x="545.43018"
       y="371.76035" />
    <rect
       style="opacity:1;stroke:#000000;stroke-width:1.1893239;stroke-opacity:1"
       id="rect1386"
       width="30.71875"
       height="28.593727"
       x="725.58203"
       y="372.21017" />
    <rect
       style="opacity:0.2;stroke:#000000;stroke-opacity:1"
       id="rect1389"
       width="22.818359"
       height="25.36524"
       x="798.92969"
       y="385.25897" />
    <rect
       style="opacity:1;stroke:#000000;stroke-width:1.19238865;stroke-opacity:1"
       id="rect1392"
       width="33.33075"
       height="28.988852"
       x="512.08521"
       y="371.75424" />
    <rect
       style="opacity:0.2;stroke:#000000;stroke-opacity:1"
       id="rect1547"
       width="43.838455"
       height="85.008339"
       x="756.25287"
       y="649.15887" />
    <path
       style="fill:none;stroke:#000000;stroke-width:2.00181985;stroke-linecap:butt;stroke-linejoin:miter;stroke-miterlimit:4;stroke-dasharray:none;stroke-opacity:1"
       d="m 377.87147,176.841 532.7207,0.0379 v 0 0"
       id="path6204"
       inkscape:connector-curvature="0" />
    <path
       style="fill:none;stroke:#000000;stroke-width:2;stroke-linecap:butt;stroke-linejoin:miter;stroke-opacity:1;stroke-miterlimit:4;stroke-dasharray:none"
       d="m 910.59216,176.87886 0.0878,472.28001 v 0 H 800.09131 v 85.00837 h -43.83844 v 0 0 l 0.001,-285.09995"
       id="path6749"
       inkscape:connector-curvature="0" />
    <path
       style="fill:none;stroke:#000000;stroke-width:2;stroke-linecap:butt;stroke-linejoin:miter;stroke-opacity:1;stroke-miterlimit:4;stroke-dasharray:none"
       d="m 378.84375,176.841 -0.0291,497.60065 h 133.24889 l -0.3573,-152.06875 v 0 0 h 200.61641 v 0"
       id="path6751"
       inkscape:connector-curvature="0" />
    <path
       style="fill:none;stroke:#000000;stroke-width:2;stroke-linecap:butt;stroke-linejoin:miter;stroke-opacity:1;stroke-miterlimit:4;stroke-dasharray:none"
       d="m 712.32265,522.3729 v -55.57377 l -140.62679,3e-5 v -17.59597 l 184.55801,-0.1359"
       id="path6753"
       inkscape:connector-curvature="0" />
    <path
       style="fill:none;stroke:#000000;stroke-width:2;stroke-linecap:butt;stroke-linejoin:miter;stroke-opacity:1;stroke-miterlimit:4;stroke-dasharray:none"
       d="m 756.30078,176.87811 v 223.92578 0 l -30.71875,0"
       id="path6755"
       inkscape:connector-curvature="0" />
    <path
       style="fill:none;stroke:#000000;stroke-width:2;stroke-linecap:butt;stroke-linejoin:miter;stroke-opacity:1;stroke-miterlimit:4;stroke-dasharray:none"
       d="m 583.49805,400.86007 -38.08008,-0.2222 -0.0312,-223.79687"
       id="path6757"
       inkscape:connector-curvature="0" />
    <path
       style="fill:none;stroke:#000000;stroke-width:2;stroke-linecap:butt;stroke-linejoin:miter;stroke-opacity:1;stroke-miterlimit:4;stroke-dasharray:none"
       d="M 798.90167,329.55566 V 504.11132"
       id="path6759"
       inkscape:connector-curvature="0" />
    <path
       style="fill:none;stroke:#000000;stroke-width:2;stroke-linecap:butt;stroke-linejoin:miter;stroke-opacity:1;stroke-miterlimit:4;stroke-dasharray:none"
       d="M 480.71484,468.62365 H 378.6806 v 0 0"
       id="path6761"
       inkscape:connector-curvature="0" />
    <path
       style="fill:none;stroke:#000000;stroke-width:2;stroke-linecap:butt;stroke-linejoin:miter;stroke-opacity:1;stroke-miterlimit:4;stroke-dasharray:none"
       d="m 480.76657,468.62182 -0.0788,-5.99999"
       id="path6767"
       inkscape:connector-curvature="0" />
    <path
       style="fill:none;stroke:#000000;stroke-width:2;stroke-linecap:butt;stroke-linejoin:miter;stroke-opacity:1;stroke-miterlimit:4;stroke-dasharray:none"
       d="m 545.38672,400.80389 -37.50391,0.0566"
       id="path6771"
       inkscape:connector-curvature="0" />
    <path
       style="fill:none;stroke:#000000;stroke-width:1px;stroke-linecap:butt;stroke-linejoin:miter;stroke-opacity:1"
       d="M 512.06354,522.34069 Z"
       id="path6773"
       inkscape:connector-curvature="0" />
    <path
       style="fill:none;stroke:#000000;stroke-width:2;stroke-linecap:butt;stroke-linejoin:miter;stroke-opacity:1;stroke-miterlimit:4;stroke-dasharray:none"
       d="m 378.6806,400.88501 h 107.28424 v 0 0"
       id="path6777"
       inkscape:connector-curvature="0" />
    <path
       style="fill:none;stroke:#000000;stroke-width:2;stroke-linecap:butt;stroke-linejoin:miter;stroke-opacity:1;stroke-miterlimit:4;stroke-dasharray:none"
       d="m 461.06039,501.50228 v 20.98258 L 431.829,522.37291"
       id="path6779"
       inkscape:connector-curvature="0" />
    <path
       style="fill:none;stroke:#000000;stroke-width:2;stroke-linecap:butt;stroke-linejoin:miter;stroke-opacity:1;stroke-miterlimit:4;stroke-dasharray:none"
       d="m 461.06039,522.48486 23.31132,0.2416 v 0 0"
       id="path6783"
       inkscape:connector-curvature="0" />
    <path
       style="fill:none;stroke:#000000;stroke-width:2;stroke-linecap:butt;stroke-linejoin:miter;stroke-opacity:1;stroke-miterlimit:4;stroke-dasharray:none"
       d="m 507.70624,522.3729 4.3573,-0.0322"
       id="path6785"
       inkscape:connector-curvature="0" />
    <path
       style="fill:none;stroke:#000000;stroke-width:2;stroke-linecap:butt;stroke-linejoin:miter;stroke-opacity:1;stroke-miterlimit:4;stroke-dasharray:none"
       d="M 480.79944,501.46948 V 522.5177"
       id="path6787"
       inkscape:connector-curvature="0" />
    <path
       style="fill:none;stroke:#000000;stroke-width:1px;stroke-linecap:butt;stroke-linejoin:miter;stroke-opacity:1"
       d="m 571.69586,449.20318 -25.40013,0.0791 v 0 17.51687 l 25.40013,10e-6"
       id="path6789"
       inkscape:connector-curvature="0" />
    <path
       style="fill:none;stroke:#000000;stroke-width:2.31116652;stroke-linecap:butt;stroke-linejoin:miter;stroke-miterlimit:4;stroke-dasharray:none;stroke-opacity:1"
       d="m 512.08281,371.34848 -0.0824,34.96161"
       id="path6791"
       inkscape:connector-curvature="0" />
    <path
       style="fill:none;stroke:#000000;stroke-width:0.5;stroke-linecap:butt;stroke-linejoin:miter;stroke-opacity:1;stroke-miterlimit:4;stroke-dasharray:none"
       d="m 725.58203,400.80389 -142.08398,0.0562"
       id="path6793"
       inkscape:connector-curvature="0" />
    <path
       style="fill:none;stroke:#000000;stroke-width:2;stroke-linecap:butt;stroke-linejoin:miter;stroke-opacity:1;stroke-miterlimit:4;stroke-dasharray:none"
       d="m 756.60425,330.05566 8.62559,-0.0234 v 0"
       id="path6795"
       inkscape:connector-curvature="0" />
    <path
       style="fill:none;stroke:#000000;stroke-width:2;stroke-linecap:butt;stroke-linejoin:miter;stroke-opacity:1;stroke-miterlimit:4;stroke-dasharray:none"
       d="m 788.37591,330.03828 59.37407,0.0117 v 0 0"
       id="path6801"
       inkscape:connector-curvature="0" />
    <path
       style="fill:none;stroke:#000000;stroke-width:2;stroke-linecap:butt;stroke-linejoin:miter;stroke-opacity:1;stroke-miterlimit:4;stroke-dasharray:none"
       d="m 910.63824,330.00958 -29.38826,0.0404 v 0 0 0 0 0"
       id="path6805"
       inkscape:connector-curvature="0" />
    <path
       style="fill:none;stroke:#000000;stroke-width:2;stroke-linecap:butt;stroke-linejoin:miter;stroke-opacity:1;stroke-miterlimit:4;stroke-dasharray:none"
       d="m 841.99927,330.00958 c 7.1e-4,25.54041 7.1e-4,25.54041 7.1e-4,25.54041"
       id="path6809"
       inkscape:connector-curvature="0" />
    <path
       style="fill:none;stroke:#000000;stroke-width:2;stroke-linecap:butt;stroke-linejoin:miter;stroke-opacity:1;stroke-miterlimit:4;stroke-dasharray:none"
       d="m 841.99927,384.88702 7.1e-4,-7.58703 v 0 0 0 0"
       id="path6813"
       inkscape:connector-curvature="0" />
    <path
       style="fill:none;stroke:#000000;stroke-width:2;stroke-linecap:butt;stroke-linejoin:miter;stroke-opacity:1;stroke-miterlimit:4;stroke-dasharray:none"
       d="m 847.49998,385.04999 -48.57029,0.20898"
       id="path6815"
       inkscape:connector-curvature="0" />
    <path
       style="fill:none;stroke:#000000;stroke-width:2;stroke-linecap:butt;stroke-linejoin:miter;stroke-opacity:1;stroke-miterlimit:4;stroke-dasharray:none"
       d="m 798.90167,446.01208 48.34831,0.0379 v 0 0"
       id="path6817"
       inkscape:connector-curvature="0" />
    <path
       style="fill:none;stroke:#000000;stroke-width:2;stroke-linecap:butt;stroke-linejoin:miter;stroke-opacity:1;stroke-miterlimit:4;stroke-dasharray:none"
       d="m 910.60132,446.01208 -42.35134,0.0379"
       id="path6819"
       inkscape:connector-curvature="0" />
    <path
       inkscape:connector-curvature="0"
       id="path6821"
       d="m 910.63824,384.88702 -42.35134,0.0379"
       style="fill:none;stroke:#000000;stroke-width:2;stroke-linecap:butt;stroke-linejoin:miter;stroke-opacity:1;stroke-miterlimit:4;stroke-dasharray:none" />
    <path
       inkscape:connector-curvature="0"
       id="path6823"
       d="m 910.67993,503.80859 -29.38826,0.0404 v 0 0 0 0 0"
       style="fill:none;stroke:#000000;stroke-width:2;stroke-linecap:butt;stroke-linejoin:miter;stroke-opacity:1;stroke-miterlimit:4;stroke-dasharray:none" />
    <path
       inkscape:connector-curvature="0"
       id="path6825"
       d="m 788.56437,503.98813 59.37407,0.0117 v 0 0"
       style="fill:none;stroke:#000000;stroke-width:2;stroke-linecap:butt;stroke-linejoin:miter;stroke-opacity:1;stroke-miterlimit:4;stroke-dasharray:none" />
    <path
       style="fill:none;stroke:#000000;stroke-width:2;stroke-linecap:butt;stroke-linejoin:miter;stroke-opacity:1;stroke-miterlimit:4;stroke-dasharray:none"
       d="m 821.74805,385.25897 0.002,5.79102 v 0 0"
       id="path6827"
       inkscape:connector-curvature="0" />
    <path
       style="fill:none;stroke:#000000;stroke-width:2;stroke-linecap:butt;stroke-linejoin:miter;stroke-opacity:1;stroke-miterlimit:4;stroke-dasharray:none"
       d="m 798.92969,410.6242 h 22.81836 v 0 l 0.002,-5.3242 v 0"
       id="path6829"
       inkscape:connector-curvature="0" />
    <path
       style="fill:none;stroke:#000000;stroke-width:2;stroke-linecap:butt;stroke-linejoin:miter;stroke-opacity:1;stroke-miterlimit:4;stroke-dasharray:none"
       d="M 842.0545,446.01208 842,453.54999 v 0 0"
       id="path6831"
       inkscape:connector-curvature="0" />
    <path
       style="fill:none;stroke:#000000;stroke-width:2;stroke-linecap:butt;stroke-linejoin:miter;stroke-opacity:1;stroke-miterlimit:4;stroke-dasharray:none"
       d="M 842.0545,504.11132 842,472.79999 v 0"
       id="path6833"
       inkscape:connector-curvature="0" />
    <path
       style="fill:none;stroke:#000000;stroke-width:2;stroke-linecap:butt;stroke-linejoin:miter;stroke-opacity:1;stroke-miterlimit:4;stroke-dasharray:none"
       d="m 756.25287,503.80859 9.74711,-0.009 v 0"
       id="path6835"
       inkscape:connector-curvature="0" />
    <path
       style="fill:none;stroke:#000000;stroke-width:2.15107751;stroke-linecap:butt;stroke-linejoin:miter;stroke-miterlimit:4;stroke-dasharray:none;stroke-opacity:1"
       d="m 756.24516,649.15845 10.61371,-0.0992 v 0"
       id="path6837"
       inkscape:connector-curvature="0" />
    <path
       inkscape:connector-curvature="0"
       id="path6839"
       d="m 790.3442,649.16787 9.74711,-0.009 v 0"
       style="fill:none;stroke:#000000;stroke-width:2;stroke-linecap:butt;stroke-linejoin:miter;stroke-opacity:1;stroke-miterlimit:4;stroke-dasharray:none" />
    <path
       style="fill:none;stroke:#000000;stroke-width:2;stroke-linecap:butt;stroke-linejoin:miter;stroke-opacity:1;stroke-miterlimit:4;stroke-dasharray:none"
       d="m 480.71484,400.88501 0.0352,39.66498"
       id="path6841"
       inkscape:connector-curvature="0" />
    <path
       inkscape:connector-curvature="0"
       id="path6847"
       d="m 480.79364,474.62364 -0.0788,-5.99999"
       style="fill:none;stroke:#000000;stroke-width:2;stroke-linecap:butt;stroke-linejoin:miter;stroke-miterlimit:4;stroke-dasharray:none;stroke-opacity:1" />
    <path
       style="fill:none;stroke:#000000;stroke-width:2;stroke-linecap:butt;stroke-linejoin:miter;stroke-opacity:1;stroke-miterlimit:4;stroke-dasharray:none"
       d="m 460.97403,501.46951 0.0864,-32.84769 v 0 0 0 0"
       id="path6851"
       inkscape:connector-curvature="0" />
    <path
       style="fill:none;stroke:#000000;stroke-width:2;stroke-linecap:butt;stroke-linejoin:miter;stroke-opacity:1;stroke-miterlimit:4;stroke-dasharray:none"
       d="M 511.70624,522.3729 511.9453,443.016"
       id="path6853"
       inkscape:connector-curvature="0" />
    <path
       inkscape:connector-curvature="0"
       id="path6855"
       d="M 511.70624,522.3729 511.9453,443.016"
       style="fill:none;stroke:#000000;stroke-width:2;stroke-linecap:butt;stroke-linejoin:miter;stroke-opacity:1;stroke-miterlimit:4;stroke-dasharray:none" />
    <path
       style="fill:none;stroke:#000000;stroke-width:1px;stroke-linecap:butt;stroke-linejoin:miter;stroke-opacity:1"
       d="m 480.76657,501.50228 -0.11075,-5.2765"
       id="path6861"
       inkscape:connector-curvature="0" />
    <path
       inkscape:connector-curvature="0"
       id="path6865"
       d="m 725.58203,390.80237 -142.08398,0.0562"
       style="fill:none;stroke:#000000;stroke-width:0.5;stroke-linecap:butt;stroke-linejoin:miter;stroke-miterlimit:4;stroke-dasharray:none;stroke-opacity:1" />
    <path
       style="fill:none;stroke:#000000;stroke-width:0.5;stroke-linecap:butt;stroke-linejoin:miter;stroke-miterlimit:4;stroke-dasharray:none;stroke-opacity:1"
       d="m 725.08203,381.58904 -142.08398,0.0562"
       id="path6867"
       inkscape:connector-curvature="0" />
    <path
       inkscape:connector-curvature="0"
       id="path6869"
       d="m 725.58203,372.21017 -142.08398,0.0562"
       style="fill:none;stroke:#000000;stroke-width:0.5;stroke-linecap:butt;stroke-linejoin:miter;stroke-miterlimit:4;stroke-dasharray:none;stroke-opacity:1" />
    <path
       style="fill:none;stroke:#000000;stroke-width:0.5;stroke-linecap:butt;stroke-linejoin:miter;stroke-miterlimit:4;stroke-dasharray:none;stroke-opacity:1"
       d="M 701.57265,466.79913 V 522.3729"
       id="path6873"
       inkscape:connector-curvature="0" />
    <path
       inkscape:connector-curvature="0"
       id="path6884"
       d="M 691.57265,466.79913 V 522.3729"
       style="fill:none;stroke:#000000;stroke-width:0.5;stroke-linecap:butt;stroke-linejoin:miter;stroke-miterlimit:4;stroke-dasharray:none;stroke-opacity:1" />
    <path
       inkscape:connector-curvature="0"
       id="path6886"
       d="M 681.32265,466.79913 V 522.3729"
       style="fill:none;stroke:#000000;stroke-width:0.5;stroke-linecap:butt;stroke-linejoin:miter;stroke-miterlimit:4;stroke-dasharray:none;stroke-opacity:1" />
    <path
       style="fill:none;stroke:#000000;stroke-width:0.5;stroke-linecap:butt;stroke-linejoin:miter;stroke-miterlimit:4;stroke-dasharray:none;stroke-opacity:1"
       d="M 671.07265,467.29913 V 522.8729"
       id="path6888"
       inkscape:connector-curvature="0" />
    <path
       style="fill:none;stroke:#000000;stroke-width:0.49320605;stroke-linecap:butt;stroke-linejoin:miter;stroke-miterlimit:4;stroke-dasharray:none;stroke-opacity:1"
       d="M 660.82265,467.54913 V 521.6229"
       id="path6894"
       inkscape:connector-curvature="0" />
    <path
       inkscape:connector-curvature="0"
       id="path6896"
       d="M 650.32265,466.29913 V 521.8729"
       style="fill:none;stroke:#000000;stroke-width:0.5;stroke-linecap:butt;stroke-linejoin:miter;stroke-miterlimit:4;stroke-dasharray:none;stroke-opacity:1" />
    <path
       style="fill:none;stroke:#000000;stroke-width:0.5;stroke-linecap:butt;stroke-linejoin:miter;stroke-miterlimit:4;stroke-dasharray:none;stroke-opacity:1"
       d="M 639.82265,466.79913 V 522.3729"
       id="path6916"
       inkscape:connector-curvature="0" />
    <path
       style="fill:none;stroke:#000000;stroke-width:0.5;stroke-linecap:butt;stroke-linejoin:miter;stroke-miterlimit:4;stroke-dasharray:none;stroke-opacity:1"
       d="M 629.32265,466.29913 V 521.8729"
       id="path6918"
       inkscape:connector-curvature="0" />
    <path
       style="fill:none;stroke:#000000;stroke-width:0.5;stroke-linecap:butt;stroke-linejoin:miter;stroke-miterlimit:4;stroke-dasharray:none;stroke-opacity:1"
       d="M 619.07265,467.04913 V 522.6229"
       id="path6922"
       inkscape:connector-curvature="0" />
    <path
       inkscape:connector-curvature="0"
       id="path6924"
       d="M 608.82265,466.29913 V 521.8729"
       style="fill:none;stroke:#000000;stroke-width:0.5;stroke-linecap:butt;stroke-linejoin:miter;stroke-miterlimit:4;stroke-dasharray:none;stroke-opacity:1" />
    <path
       inkscape:connector-curvature="0"
       id="path6926"
       d="M 598.57265,467.29913 V 522.6229"
       style="fill:none;stroke:#000000;stroke-width:0.4988741;stroke-linecap:butt;stroke-linejoin:miter;stroke-miterlimit:4;stroke-dasharray:none;stroke-opacity:1" />
    <path
       inkscape:connector-curvature="0"
       id="path6936"
       d="m 546.29573,466.79915 v 55.57377"
       style="fill:none;stroke:#000000;stroke-width:0.5;stroke-linecap:butt;stroke-linejoin:miter;stroke-miterlimit:4;stroke-dasharray:none;stroke-opacity:1" />
    <path
       style="fill:none;stroke:#000000;stroke-width:0.5;stroke-linecap:butt;stroke-linejoin:miter;stroke-miterlimit:4;stroke-dasharray:none;stroke-opacity:1"
       d="M 557.57265,465.79913 V 521.3729"
       id="path6938"
       inkscape:connector-curvature="0" />
    <path
       inkscape:connector-curvature="0"
       id="path6940"
       d="m 567.69586,466.79916 v 55.57377"
       style="fill:none;stroke:#000000;stroke-width:0.5;stroke-linecap:butt;stroke-linejoin:miter;stroke-miterlimit:4;stroke-dasharray:none;stroke-opacity:1" />
    <path
       style="fill:none;stroke:#000000;stroke-width:0.4988741;stroke-linecap:butt;stroke-linejoin:miter;stroke-miterlimit:4;stroke-dasharray:none;stroke-opacity:1"
       d="M 588.07265,466.29913 V 521.6229"
       id="path6944"
       inkscape:connector-curvature="0" />
    <path
       inkscape:connector-curvature="0"
       id="path6946"
       d="M 577.57265,467.29913 V 522.3729"
       style="fill:none;stroke:#000000;stroke-width:0.49774566;stroke-linecap:butt;stroke-linejoin:miter;stroke-miterlimit:4;stroke-dasharray:none;stroke-opacity:1" />
    <path
       inkscape:connector-curvature="0"
       id="path6948"
       d="m 546.68293,455.72593 -34.59974,0.0562"
       style="fill:none;stroke:#000000;stroke-width:0.24673676;stroke-linecap:butt;stroke-linejoin:miter;stroke-miterlimit:4;stroke-dasharray:none;stroke-opacity:1" />
    <path
       style="fill:none;stroke:#000000;stroke-width:0.24673676;stroke-linecap:butt;stroke-linejoin:miter;stroke-miterlimit:4;stroke-dasharray:none;stroke-opacity:1"
       d="m 546.68293,449.01109 -34.59974,0.0562"
       id="path6950"
       inkscape:connector-curvature="0" />
    <path
       style="fill:none;stroke:#000000;stroke-width:1.74945056;stroke-linecap:butt;stroke-linejoin:miter;stroke-miterlimit:4;stroke-dasharray:none;stroke-opacity:1"
       d="m 402.17609,522.30849 -22.38052,0.0406 v 0 0 0 0 0"
       id="path219"
       inkscape:connector-curvature="0" />
    <path
       id="path4041"
       d="m 453.19209,271.57818 a 2,2 0 0 0 -2,2 2,2 0 0 0 2,2 2,2 0 0 0 2,-2 2,2 0 0 0 -2,-2 m 1,-18 c 9,0 9.22,7.14 4.5,9.5 -1.98,0.98 -2.86,3.08 -3.24,4.94 0.96,0.4 1.8,1.02 2.44,1.82 7.4,-4 15.36,-2.42 15.36,4.74 0,9 -7.14,9.2 -9.5,4.46 -1,-1.98 -3.12,-2.86 -4.98,-3.24 -0.4,0.96 -1.02,1.78 -1.82,2.46 3.98,7.38 2.4,15.32 -4.76,15.32 -9,0 -9.18,-7.16 -4.46,-9.52 1.96,-0.98 2.84,-3.06 3.24,-4.9 -0.98,-0.4 -1.84,-1.04 -2.48,-1.84 -7.38,3.96 -15.3,2.4 -15.3,-4.74 0,-9 7.12,-9.22 9.48,-4.48 1,1.98 3.1,2.84 4.96,3.22 0.38,-0.96 1.02,-1.8 1.84,-2.44 -3.98,-7.38 -2.4,-15.3 4.72,-15.3 z"
       inkscape:connector-curvature="0"
       style="stroke-width:2" />
    <path
       id="path4062"
       d="m 451.29287,295.57818 a 7,7 0 0 0 -7,7 c 0,2.38 1.19,4.47 3,5.74 v 2.26 a 1,1 0 0 0 1,1 h 6 a 1,1 0 0 0 1,-1 v -2.26 c 1.81,-1.27 3,-3.36 3,-5.74 a 7,7 0 0 0 -7,-7 m -3,19 a 1,1 0 0 0 1,1 h 4 a 1,1 0 0 0 1,-1 v -1 h -6 z"
       inkscape:connector-curvature="0" />
    <path
       inkscape:connector-curvature="0"
       d="m 523.99997,339.80001 a 7,7 0 0 0 -7,7 c 0,2.38 1.19,4.47 3,5.74 v 2.26 a 1,1 0 0 0 1,1 h 6 a 1,1 0 0 0 1,-1 v -2.26 c 1.81,-1.27 3,-3.36 3,-5.74 a 7,7 0 0 0 -7,-7 m -3,19 a 1,1 0 0 0 1,1 h 4 a 1,1 0 0 0 1,-1 v -1 h -6 z"
       id="path4073" />
    <path
       id="path4075"
       d="m 649.49996,297.80001 a 7,7 0 0 0 -7,7 c 0,2.38 1.19,4.47 3,5.74 v 2.26 a 1,1 0 0 0 1,1 h 6 a 1,1 0 0 0 1,-1 v -2.26 c 1.81,-1.27 3,-3.36 3,-5.74 a 7,7 0 0 0 -7,-7 m -3,19 a 1,1 0 0 0 1,1 h 4 a 1,1 0 0 0 1,-1 v -1 h -6 z"
       inkscape:connector-curvature="0" />
    <path
       style="stroke-width:2"
       inkscape:connector-curvature="0"
       d="m 650.98497,272.30001 a 2,2 0 0 0 -2,2 2,2 0 0 0 2,2 2,2 0 0 0 2,-2 2,2 0 0 0 -2,-2 m 1,-18 c 9,0 9.22,7.14 4.5,9.5 -1.98,0.98 -2.86,3.08 -3.24,4.94 0.96,0.4 1.8,1.02 2.44,1.82 7.4,-4 15.36,-2.42 15.36,4.74 0,9 -7.14,9.2 -9.5,4.46 -1,-1.98 -3.12,-2.86 -4.98,-3.24 -0.4,0.96 -1.02,1.78 -1.82,2.46 3.98,7.38 2.4,15.32 -4.76,15.32 -9,0 -9.18,-7.16 -4.46,-9.52 1.96,-0.98 2.84,-3.06 3.24,-4.9 -0.98,-0.4 -1.84,-1.04 -2.48,-1.84 -7.38,3.96 -15.3,2.4 -15.3,-4.74 0,-9 7.12,-9.22 9.48,-4.48 1,1.98 3.1,2.84 4.96,3.22 0.38,-0.96 1.02,-1.8 1.84,-2.44 -3.98,-7.38 -2.4,-15.3 4.72,-15.3 z"
       id="path4077" />
    <path
       id="path4083"
       d="m 428.54056,424.65282 a 7,7 0 0 0 -7,7 c 0,2.38 1.19,4.47 3,5.74 v 2.26 a 1,1 0 0 0 1,1 h 6 a 1,1 0 0 0 1,-1 v -2.26 c 1.81,-1.27 3,-3.36 3,-5.74 a 7,7 0 0 0 -7,-7 m -3,19 a 1,1 0 0 0 1,1 h 4 a 1,1 0 0 0 1,-1 v -1 h -6 z"
       inkscape:connector-curvature="0" />
    <path
       inkscape:connector-curvature="0"
       d="m 495.7157,448.69445 a 7,7 0 0 0 -7,7 c 0,2.38 1.19,4.47 3,5.74 v 2.26 a 1,1 0 0 0 1,1 h 6 a 1,1 0 0 0 1,-1 v -2.26 c 1.81,-1.27 3,-3.36 3,-5.74 a 7,7 0 0 0 -7,-7 m -3,19 a 1,1 0 0 0 1,1 h 4 a 1,1 0 0 0 1,-1 v -1 h -6 z"
       id="path4085" />
    <path
       id="path4087"
       d="m 635.72284,414.04622 a 7,7 0 0 0 -7,7 c 0,2.38 1.19,4.47 3,5.74 v 2.26 a 1,1 0 0 0 1,1 h 6 a 1,1 0 0 0 1,-1 v -2.26 c 1.81,-1.27 3,-3.36 3,-5.74 a 7,7 0 0 0 -7,-7 m -3,19 a 1,1 0 0 0 1,1 h 4 a 1,1 0 0 0 1,-1 v -1 h -6 z"
       inkscape:connector-curvature="0" />
    <path
       inkscape:connector-curvature="0"
       d="m 635.72284,484.04979 a 7,7 0 0 0 -7,7 c 0,2.38 1.19,4.47 3,5.74 v 2.26 a 1,1 0 0 0 1,1 h 6 a 1,1 0 0 0 1,-1 v -2.26 c 1.81,-1.27 3,-3.36 3,-5.74 a 7,7 0 0 0 -7,-7 m -3,19 a 1,1 0 0 0 1,1 h 4 a 1,1 0 0 0 1,-1 v -1 h -6 z"
       id="path4089" />
    <path
       style="stroke-width:2"
       inkscape:connector-curvature="0"
       d="m 444.70681,591.89754 a 2,2 0 0 0 -2,2 2,2 0 0 0 2,2 2,2 0 0 0 2,-2 2,2 0 0 0 -2,-2 m 1,-18 c 9,0 9.22,7.14 4.5,9.5 -1.98,0.98 -2.86,3.08 -3.24,4.94 0.96,0.4 1.8,1.02 2.44,1.82 7.4,-4 15.36,-2.42 15.36,4.74 0,9 -7.14,9.2 -9.5,4.46 -1,-1.98 -3.12,-2.86 -4.98,-3.24 -0.4,0.96 -1.02,1.78 -1.82,2.46 3.98,7.38 2.4,15.32 -4.76,15.32 -9,0 -9.18,-7.16 -4.46,-9.52 1.96,-0.98 2.84,-3.06 3.24,-4.9 -0.98,-0.4 -1.84,-1.04 -2.48,-1.84 -7.38,3.96 -15.3,2.4 -15.3,-4.74 0,-9 7.12,-9.22 9.48,-4.48 1,1.98 3.1,2.84 4.96,3.22 0.38,-0.96 1.02,-1.8 1.84,-2.44 -3.98,-7.38 -2.4,-15.3 4.72,-15.3 z"
       id="path4093" />
    <path
       id="path4095"
       d="m 835.02974,570.68434 a 2,2 0 0 0 -2,2 2,2 0 0 0 2,2 2,2 0 0 0 2,-2 2,2 0 0 0 -2,-2 m 1,-18 c 9,0 9.22,7.14 4.5,9.5 -1.98,0.98 -2.86,3.08 -3.24,4.94 0.96,0.4 1.8,1.02 2.44,1.82 7.4,-4 15.36,-2.42 15.36,4.74 0,9 -7.14,9.2 -9.5,4.46 -1,-1.98 -3.12,-2.86 -4.98,-3.24 -0.4,0.96 -1.02,1.78 -1.82,2.46 3.98,7.38 2.4,15.32 -4.76,15.32 -9,0 -9.18,-7.16 -4.46,-9.52 1.96,-0.98 2.84,-3.06 3.24,-4.9 -0.98,-0.4 -1.84,-1.04 -2.48,-1.84 -7.38,3.96 -15.3,2.4 -15.3,-4.74 0,-9 7.12,-9.22 9.48,-4.48 1,1.98 3.1,2.84 4.96,3.22 0.38,-0.96 1.02,-1.8 1.84,-2.44 -3.98,-7.38 -2.4,-15.3 4.72,-15.3 z"
       inkscape:connector-curvature="0"
       style="stroke-width:2" />
    <path
       inkscape:connector-curvature="0"
       d="m 779.26551,385.05484 a 7,7 0 0 0 -7,7 c 0,2.38 1.19,4.47 3,5.74 v 2.26 a 1,1 0 0 0 1,1 h 6 a 1,1 0 0 0 1,-1 v -2.26 c 1.81,-1.27 3,-3.36 3,-5.74 a 7,7 0 0 0 -7,-7 m -3,19 a 1,1 0 0 0 1,1 h 4 a 1,1 0 0 0 1,-1 v -1 h -6 z"
       id="path4097" />
    <path
       id="path4099"
       d="m 872.6036,347.57818 a 7,7 0 0 0 -7,7 c 0,2.38 1.19,4.47 3,5.74 v 2.26 a 1,1 0 0 0 1,1 h 6 a 1,1 0 0 0 1,-1 v -2.26 c 1.81,-1.27 3,-3.36 3,-5.74 a 7,7 0 0 0 -7,-7 m -3,19 a 1,1 0 0 0 1,1 h 4 a 1,1 0 0 0 1,-1 v -1 h -6 z"
       inkscape:connector-curvature="0" />
    <path
       inkscape:connector-curvature="0"
       d="m 871.8965,464.9579 a 7,7 0 0 0 -7,7 c 0,2.38 1.19,4.47 3,5.74 v 2.26 a 1,1 0 0 0 1,1 h 6 a 1,1 0 0 0 1,-1 v -2.26 c 1.81,-1.27 3,-3.36 3,-5.74 a 7,7 0 0 0 -7,-7 m -3,19 a 1,1 0 0 0 1,1 h 4 a 1,1 0 0 0 1,-1 v -1 h -6 z"
       id="path4101" />
    <path
       id="path4103"
       d="m 870.48228,405.56093 a 7,7 0 0 0 -7,7 c 0,2.38 1.19,4.47 3,5.74 v 2.26 a 1,1 0 0 0 1,1 h 6 a 1,1 0 0 0 1,-1 v -2.26 c 1.81,-1.27 3,-3.36 3,-5.74 a 7,7 0 0 0 -7,-7 m -3,19 a 1,1 0 0 0 1,1 h 4 a 1,1 0 0 0 1,-1 v -1 h -6 z"
       inkscape:connector-curvature="0" />
    <path
       inkscape:connector-curvature="0"
       d="m 870.48228,405.56093 a 7,7 0 0 0 -7,7 c 0,2.38 1.19,4.47 3,5.74 v 2.26 a 1,1 0 0 0 1,1 h 6 a 1,1 0 0 0 1,-1 v -2.26 c 1.81,-1.27 3,-3.36 3,-5.74 a 7,7 0 0 0 -7,-7 m -3,19 a 1,1 0 0 0 1,1 h 4 a 1,1 0 0 0 1,-1 v -1 h -6 z"
       id="path4105" />
    <path
       style="stroke-width:2"
       inkscape:connector-curvature="0"
       d="m 835.73685,254.60762 a 2,2 0 0 0 -2,2 2,2 0 0 0 2,2 2,2 0 0 0 2,-2 2,2 0 0 0 -2,-2 m 1,-18 c 9,0 9.22,7.14 4.5,9.5 -1.98,0.98 -2.86,3.08 -3.24,4.94 0.96,0.4 1.8,1.02 2.44,1.82 7.4,-4 15.36,-2.42 15.36,4.74 0,9 -7.14,9.2 -9.5,4.46 -1,-1.98 -3.12,-2.86 -4.98,-3.24 -0.4,0.96 -1.02,1.78 -1.82,2.46 3.98,7.38 2.4,15.32 -4.76,15.32 -9,0 -9.18,-7.16 -4.46,-9.52 1.96,-0.98 2.84,-3.06 3.24,-4.9 -0.98,-0.4 -1.84,-1.04 -2.48,-1.84 -7.38,3.96 -15.3,2.4 -15.3,-4.74 0,-9 7.12,-9.22 9.48,-4.48 1,1.98 3.1,2.84 4.96,3.22 0.38,-0.96 1.02,-1.8 1.84,-2.44 -3.98,-7.38 -2.4,-15.3 4.72,-15.3 z"
       id="path4107" />
    <path
       inkscape:connector-curvature="0"
       d="m 821.69191,347.57818 a 7,7 0 0 0 -7,7 c 0,2.38 1.19,4.47 3,5.74 v 2.26 a 1,1 0 0 0 1,1 h 6 a 1,1 0 0 0 1,-1 v -2.26 c 1.81,-1.27 3,-3.36 3,-5.74 a 7,7 0 0 0 -7,-7 m -3,19 a 1,1 0 0 0 1,1 h 4 a 1,1 0 0 0 1,-1 v -1 h -6 z"
       id="path4109" />
    <path
       id="path4111"
       d="m 821.69191,347.57818 a 7,7 0 0 0 -7,7 c 0,2.38 1.19,4.47 3,5.74 v 2.26 a 1,1 0 0 0 1,1 h 6 a 1,1 0 0 0 1,-1 v -2.26 c 1.81,-1.27 3,-3.36 3,-5.74 a 7,7 0 0 0 -7,-7 m -3,19 a 1,1 0 0 0 1,1 h 4 a 1,1 0 0 0 1,-1 v -1 h -6 z"
       inkscape:connector-curvature="0" />
    <path
       id="path4113"
       d="m 819.5706,463.54369 a 7,7 0 0 0 -7,7 c 0,2.38 1.19,4.47 3,5.74 v 2.26 a 1,1 0 0 0 1,1 h 6 a 1,1 0 0 0 1,-1 v -2.26 c 1.81,-1.27 3,-3.36 3,-5.74 a 7,7 0 0 0 -7,-7 m -3,19 a 1,1 0 0 0 1,1 h 4 a 1,1 0 0 0 1,-1 v -1 h -6 z"
       inkscape:connector-curvature="0" />
    <path
       inkscape:connector-curvature="0"
       d="m 777.8513,661.53358 a 7,7 0 0 0 -7,7 c 0,2.38 1.19,4.47 3,5.74 v 2.26 a 1,1 0 0 0 1,1 h 6 a 1,1 0 0 0 1,-1 v -2.26 c 1.81,-1.27 3,-3.36 3,-5.74 a 7,7 0 0 0 -7,-7 m -3,19 a 1,1 0 0 0 1,1 h 4 a 1,1 0 0 0 1,-1 v -1 h -6 z"
       id="path4115" />
    <path
       id="path4117"
       d="m 419.34818,486.87821 a 7,7 0 0 0 -7,7 c 0,2.38 1.19,4.47 3,5.74 v 2.26 a 1,1 0 0 0 1,1 h 6 a 1,1 0 0 0 1,-1 v -2.26 c 1.81,-1.27 3,-3.36 3,-5.74 a 7,7 0 0 0 -7,-7 m -3,19 a 1,1 0 0 0 1,1 h 4 a 1,1 0 0 0 1,-1 v -1 h -6 z"
       inkscape:connector-curvature="0" />
  </g>
</svg>
